<?xml version="1.0" standalone="no"?>
<!DOCTYPE svg PUBLIC "-//W3C//DTD SVG 1.1//EN" "http://www.w3.org/Graphics/SVG/1.1/DTD/svg11.dtd" >
<svg xmlns="http://www.w3.org/2000/svg" xmlns:xlink="http://www.w3.org/1999/xlink" version="1.1">
<metadata></metadata>
<defs>
<font id="youthregular" horiz-adv-x="1843" >
<font-face units-per-em="2048" ascent="1638" descent="-410" />
<missing-glyph horiz-adv-x="614" />
<glyph horiz-adv-x="0" />
<glyph horiz-adv-x="682" />
<glyph unicode=" "  horiz-adv-x="614" />
<glyph unicode="&#x09;" horiz-adv-x="614" />
<glyph unicode="&#xa0;" horiz-adv-x="614" />
<glyph unicode="!" horiz-adv-x="796" d="M281 1513h237l-35 -1093h-170zM287 -51v237h225v-237h-225z" />
<glyph unicode="&#x22;" horiz-adv-x="985" d="M209 1573h223l-22 -461h-181zM555 1573h223l-22 -461h-178z" />
<glyph unicode="#" horiz-adv-x="1138" d="M76 379v149h166l61 461h-158v150h179l43 329h176l-43 -329h248l43 329h176l-43 -329h135v-150h-156l-63 -461h149v-149h-168l-55 -412h-176l55 412h-248l-53 -412h-176l53 412h-145zM418 528h246l63 461h-248z" />
<glyph unicode="$" horiz-adv-x="1138" d="M117 8l18 191q53 -29 145.5 -57.5t190.5 -28.5q6 0 10 -1t8 -1t9.5 1t15.5 3v538q-66 31 -131.5 67t-116.5 85q-53 49 -84.5 114.5t-31.5 157.5q0 172 103 276.5t261 133.5v145h131v-137q74 -6 164 -19.5t143 -29.5l-18 -182q-70 31 -134.5 45t-154.5 16v-494 q63 -33 129 -70.5t117 -90.5q53 -51 86 -121t33 -164q0 -180 -100.5 -284.5t-264.5 -141.5v-141h-131v125q-8 0 -16.5 -1t-14.5 -1h-15h-13q-92 0 -178.5 19.5t-159.5 47.5zM367 1098q0 -66 36.5 -111t110.5 -88v406q-68 -29 -107.5 -77t-39.5 -130zM645 156q68 37 105.5 89 t37.5 126t-36.5 122t-106.5 95v-432z" />
<glyph unicode="%" horiz-adv-x="1884" d="M76 1102q0 166 91.5 279.5t281.5 113.5q100 0 170.5 -31.5t115.5 -87.5q43 -53 63.5 -126.5t20.5 -155.5q0 -86 -20.5 -158t-63.5 -125q-45 -53 -115.5 -83t-170.5 -30q-96 0 -166 31t-117 86q-45 53 -67.5 127t-22.5 160zM291 1094q0 -43 5 -91.5t23 -87.5 q16 -41 47.5 -66.5t82.5 -25.5t82.5 29t48.5 70q16 43 21 91t5 89q0 37 -5 83t-21 87t-48 69.5t-83 28.5t-82 -27.5t-48 -68.5q-18 -41 -23 -89t-5 -91zM436 -59l838 1554h176l-836 -1554h-178zM1057 342q0 168 90 280.5t280 112.5q100 0 171 -31.5t116 -87.5 q45 -53 65.5 -126.5t20.5 -155.5q0 -84 -20.5 -157t-65.5 -124q-45 -53 -115.5 -82.5t-171.5 -29.5q-190 0 -280 115.5t-90 285.5zM1270 334q0 -43 5 -91t23 -87q16 -39 47 -64.5t82 -25.5t83 28.5t49 69.5q16 43 21 91t5 87q0 37 -5 84t-21 88t-48 68.5t-84 27.5 q-51 0 -81.5 -27.5t-47.5 -68.5q-18 -43 -23 -91t-5 -89z" />
<glyph unicode="&#x26;" horiz-adv-x="1478" d="M135 358q0 154 82 260.5t246 176.5q-31 39 -61.5 78.5t-55.5 84.5q-25 43 -40 91.5t-15 101.5q0 84 30.5 148.5t84.5 107.5q53 43 121.5 65.5t146.5 22.5q70 0 134 -21.5t116 -62.5q49 -41 79.5 -104.5t30.5 -145.5q0 -70 -27.5 -129t-70.5 -110q-45 -49 -102.5 -90 t-116.5 -70l309 -377q53 72 78.5 167t34.5 212h186q-12 -152 -59 -289t-113 -227l246 -281h-258l-121 144q-80 -90 -187.5 -130t-230.5 -40q-211 0 -339 113.5t-128 303.5zM348 373q0 -63 22.5 -115.5t63.5 -89.5q39 -37 90 -57.5t107 -20.5q98 0 164.5 44t117.5 99 l-356 443q-94 -61 -151.5 -128t-57.5 -175zM489 1143q0 -37 12.5 -74t33.5 -72q20 -35 42.5 -66.5t45.5 -58.5q37 18 76.5 46t70.5 65q33 35 54.5 76t21.5 90q0 102 -52.5 151.5t-125.5 49.5q-74 0 -126.5 -54.5t-52.5 -152.5z" />
<glyph unicode="'" horiz-adv-x="569" d="M172 1563h225l-22 -461h-180z" />
<glyph unicode="(" horiz-adv-x="681" d="M127 635q0 272 79 490t251 440h182q-152 -221 -227.5 -438.5t-75.5 -491.5q0 -270 74.5 -492.5t228.5 -439.5h-182q-170 217 -250 442.5t-80 489.5z" />
<glyph unicode=")" horiz-adv-x="681" d="M43 -297q152 217 227.5 439.5t75.5 492.5q0 274 -76.5 491t-226.5 439h182q170 -221 250 -439.5t80 -490.5q0 -264 -81 -489.5t-249 -442.5h-182z" />
<glyph unicode="*" horiz-adv-x="1024" d="M61 1100l56 186l342 -141l-35 362h190l-34 -360l333 139l54 -186l-355 -74l244 -287l-160 -112l-182 319l-186 -319l-160 112l252 287z" />
<glyph unicode="+" horiz-adv-x="1228" d="M104 664v165h420v441h181v-441h419v-165h-419v-445h-181v445h-420z" />
<glyph unicode="," horiz-adv-x="569" d="M78 -330l123 496h227l-170 -496h-180z" />
<glyph unicode="-" horiz-adv-x="921" d="M109 659v170h704v-170h-704z" />
<glyph unicode="." horiz-adv-x="569" d="M172 -94v246h225v-246h-225z" />
<glyph unicode="/" horiz-adv-x="921" d="M115 -143l501 1661h191l-502 -1661h-190z" />
<glyph unicode="0" horiz-adv-x="1138" d="M88 717q0 127 20.5 268t73.5 254q51 111 146.5 187.5t240.5 76.5q150 0 243 -78.5t146 -189.5q51 -113 72 -254t21 -264q0 -127 -21.5 -268.5t-73.5 -251.5q-53 -111 -146 -187t-241 -76q-152 0 -246 77t-145 192q-49 113 -69.5 252t-20.5 262zM303 717q0 -96 7 -201.5 t36 -204.5q31 -98 83 -158.5t140 -60.5q90 0 141.5 60.5t80.5 158.5t37 204t8 202q0 82 -9.5 186.5t-35.5 206.5q-31 100 -81.5 166.5t-140.5 66.5q-82 0 -134 -64.5t-83 -162.5q-31 -100 -40 -205.5t-9 -193.5z" />
<glyph unicode="1" horiz-adv-x="1118" d="M199 1206l346 262h188v-1501h-207v1284l-239 -182z" />
<glyph unicode="2" horiz-adv-x="1138" d="M100 1352q78 61 193 100t231 39q201 0 329 -110.5t128 -313.5q0 -90 -39 -182t-96 -180q-59 -88 -128 -168t-130 -144q-31 -31 -70 -69.5t-76 -75.5q-39 -37 -72.5 -69t-52.5 -50h697v-162h-910v213q18 18 48 46t65 61q33 31 69 64.5t66 66.5q66 68 139.5 146.5 t135.5 162.5q61 86 102 174t41 176q0 111 -81 180.5t-193 69.5q-90 0 -179.5 -36t-150.5 -85z" />
<glyph unicode="3" horiz-adv-x="1138" d="M66 25l55 143q61 -35 147 -52.5t160 -17.5q70 0 137.5 17.5t120.5 52.5q53 37 87 91t34 128q0 76 -33 131t-88 90q-53 37 -123.5 54.5t-144.5 19.5h-119v162h111q61 0 123.5 13t111.5 44t80 80t31 121q0 127 -87 183t-198 56q-74 -2 -152.5 -22.5t-134.5 -52.5l-67 139 q78 45 178 71.5t199 26.5q92 0 178 -22.5t151 -69.5q68 -47 108 -118.5t40 -172.5q0 -135 -81 -225t-202 -131q70 -12 131.5 -47t106.5 -86t71.5 -116.5t26.5 -137.5q0 -113 -49 -196t-129 -138q-82 -55 -187.5 -82t-218.5 -24q-104 -2 -199.5 18t-174.5 70z" />
<glyph unicode="4" horiz-adv-x="1138" d="M41 264v172l567 1032h299v-1046h183v-158h-183v-297h-205v297h-661zM233 422h469v870z" />
<glyph unicode="5" horiz-adv-x="1138" d="M106 37l58 143q61 -37 142 -57.5t155 -20.5q63 0 123.5 22.5t109.5 65.5q47 43 77 104.5t30 137.5q0 162 -98.5 243t-239.5 81q-78 0 -151.5 -17.5t-129.5 -38.5l15 768h782v-157h-590l-8 -422q31 8 82 14t100 6q88 0 170 -30.5t146 -90.5q61 -57 100 -141t39 -190 q0 -115 -41 -210t-115 -165q-72 -68 -172 -105.5t-217 -37.5q-98 0 -195.5 24.5t-171.5 73.5z" />
<glyph unicode="6" horiz-adv-x="1138" d="M109 678q0 147 25.5 293.5t92.5 261.5q66 117 177.5 189.5t281.5 72.5q82 0 162 -20.5t143 -55.5l-55 -143q-55 29 -112.5 43t-125.5 14q-104 0 -179 -48t-124 -128q-47 -80 -70.5 -182.5t-23.5 -212.5q59 78 143 121t172 43q100 0 180.5 -38t133.5 -104 q53 -63 81.5 -150t28.5 -185q0 -113 -33.5 -207.5t-95.5 -163.5q-61 -68 -146 -106t-185 -38q-145 0 -237.5 64.5t-143.5 171.5q-53 106 -71.5 239.5t-18.5 268.5zM326 434q0 -57 14 -117.5t45 -109.5q31 -51 77.5 -83t112.5 -32q63 0 110.5 31t78.5 80t46 109.5t15 121.5 q0 55 -15 114.5t-44 106.5q-31 49 -76 81t-106 32q-66 0 -114 -28.5t-81 -75.5q-31 -47 -47 -106.5t-16 -123.5z" />
<glyph unicode="7" horiz-adv-x="1138" d="M137 1309v159h864v-176l-520 -1325h-225l549 1342h-668z" />
<glyph unicode="8" horiz-adv-x="1138" d="M76 360q0 121 69.5 229.5t221.5 170.5q-123 55 -181.5 146t-58.5 200q0 88 33 161.5t92 127.5q59 51 139 80.5t176 29.5q94 0 175 -29.5t143 -80.5q59 -53 93 -127t34 -162q0 -111 -61.5 -201t-184.5 -145q147 -57 222 -167t75 -233q0 -90 -34 -167.5t-97 -135.5 q-63 -59 -155.5 -92t-209.5 -33t-209 34t-153 93q-63 57 -96 135t-33 166zM299 387q0 -59 19.5 -112.5t54.5 -92.5q35 -41 84 -64.5t110 -23.5q123 0 197 85t74 208q0 55 -21.5 108.5t-56.5 94.5q-37 41 -86 66.5t-107 25.5q-57 0 -106 -24.5t-84 -65.5q-37 -39 -57.5 -93.5 t-20.5 -111.5zM334 1104q0 -45 15.5 -90t45.5 -82q31 -37 74 -59.5t98 -22.5q61 0 106.5 22.5t74.5 57.5q29 37 43 82t14 92q0 41 -15.5 85t-46.5 81q-29 37 -73.5 60.5t-102.5 23.5q-59 0 -103 -24.5t-73 -61.5t-43 -81t-14 -83z" />
<glyph unicode="9" horiz-adv-x="1138" d="M104 987q0 111 32 204t91 161q57 68 141.5 105.5t186.5 37.5q145 0 238.5 -68.5t144.5 -177.5q53 -106 72.5 -237t19.5 -254q-2 -160 -32.5 -307.5t-100.5 -262.5q-68 -113 -179.5 -181t-271.5 -66q-78 -2 -155.5 18.5t-138.5 60.5l32 146q51 -31 119 -47.5t129 -16.5 q98 0 173 47.5t126 122.5q51 78 77 177.5t30 203.5q-63 -70 -147.5 -105.5t-172.5 -35.5q-98 0 -175 37t-130 102q-53 63 -81 150.5t-28 185.5zM319 1001q0 -61 13.5 -120.5t42.5 -106.5q29 -45 73 -73.5t107 -28.5t111.5 26.5t81.5 71.5q31 45 48 103.5t17 123.5 q0 55 -15.5 114.5t-45.5 111.5q-31 51 -77 83.5t-110 32.5q-66 0 -112.5 -30.5t-75.5 -79.5q-31 -47 -44.5 -107.5t-13.5 -120.5z" />
<glyph unicode=":" horiz-adv-x="569" d="M172 -4v248h225v-248h-225zM172 948v248h225v-248h-225z" />
<glyph unicode=";" horiz-adv-x="569" d="M74 -242l125 496h225l-168 -496h-182zM174 952v246h223v-246h-223z" />
<glyph unicode="&#x3c;" horiz-adv-x="1105" d="M119 672v151l854 617v-219l-676 -473l676 -476v-219z" />
<glyph unicode="=" horiz-adv-x="1105" d="M129 428v172h848v-172h-848zM129 899v168h848v-168h-848z" />
<glyph unicode="&#x3e;" horiz-adv-x="1105" d="M113 53v219l675 476l-675 473v219l854 -617v-151z" />
<glyph unicode="?" horiz-adv-x="1024" d="M109 1362q70 59 170 97t217 38q82 0 161.5 -23.5t141.5 -70.5q63 -47 101 -116.5t38 -162.5q0 -68 -20.5 -123t-53.5 -106q-33 -49 -73.5 -97t-81.5 -100q-51 -63 -78 -117.5t-27 -121.5v-90h-190v94q0 98 40 177t91 144q27 33 57.5 68t56.5 74q25 37 42.5 81t17.5 97 q0 117 -80 170t-176 53q-88 0 -167 -35t-132 -84zM397 -102v247h226v-247h-226z" />
<glyph unicode="@" horiz-adv-x="1638" d="M100 739q0 166 58.5 305.5t160.5 239.5t239.5 155.5t297.5 55.5q131 0 254 -43t219 -123q94 -80 151.5 -194.5t57.5 -257.5q0 -152 -53 -261.5t-127 -179.5q-76 -72 -160 -104.5t-147 -32.5q-43 0 -69 29.5t-28 91.5q-39 -55 -111.5 -86t-133.5 -31q-63 0 -117.5 24.5 t-95.5 67.5q-41 45 -63.5 104.5t-22.5 129.5q0 98 30.5 190t85.5 164q57 70 135 114t175 44q74 0 143.5 -42t101.5 -108l29 123h141l-131 -518q-14 -57 -11 -106.5t40 -49.5q45 0 91 30t85 85q37 55 61.5 131t24.5 166q0 129 -46 225.5t-124 157.5q-76 63 -177 95t-210 32 q-133 0 -242.5 -50t-187.5 -134q-80 -84 -123 -198t-43 -243q0 -150 45 -265.5t125 -192.5q80 -80 189.5 -121t238.5 -41q135 0 248 43t201 131h147q-92 -141 -253 -224t-349 -83q-152 0 -288 49t-238 145q-104 96 -164 236.5t-60 324.5zM580 657q0 -90 46 -147t130 -57 q57 0 105 31.5t85 82.5q35 49 55.5 110.5t20.5 121.5q0 80 -49 135t-121 55q-61 0 -111.5 -30.5t-87.5 -79.5q-35 -47 -54 -106.5t-19 -115.5z" />
<glyph unicode="A" horiz-adv-x="1478" d="M37 -33l590 1501h229l586 -1501h-232l-147 406h-660l-151 -406h-215zM461 532h545l-271 754z" />
<glyph unicode="B" horiz-adv-x="1251" d="M193 -33v1501h413q98 0 185.5 -21.5t152.5 -66.5q63 -47 101 -118.5t40 -171.5q0 -129 -68.5 -210t-193.5 -124q154 -33 251 -129.5t97 -245.5q0 -119 -45 -198t-118 -128q-74 -47 -170.5 -67.5t-200.5 -20.5h-444zM399 127h205q68 0 131.5 12.5t110.5 44.5 q49 31 78.5 82t29.5 129q0 88 -33.5 142.5t-86.5 83.5q-53 31 -120 41t-132 10h-183v-545zM399 829h146q55 0 114.5 8.5t108.5 32.5q49 27 81 74t32 125q0 68 -27 114t-68 74q-43 27 -93 39.5t-97 12.5h-197v-480z" />
<glyph unicode="C" horiz-adv-x="1251" d="M115 717q0 172 55 315.5t156 245.5q100 102 239.5 159.5t308.5 57.5q94 0 180.5 -21.5t149.5 -58.5l-55 -158q-55 33 -121.5 50.5t-146.5 17.5q-125 0 -226.5 -48t-173.5 -132q-72 -82 -109.5 -192.5t-37.5 -235.5q0 -131 41 -241.5t114 -190.5q74 -82 172.5 -127 t212.5 -45q88 0 164.5 14t137.5 47l45 -162q-68 -33 -158 -52t-189 -19q-172 0 -311 54t-239 155q-100 100 -154.5 244.5t-54.5 322.5z" />
<glyph unicode="D" horiz-adv-x="1478" d="M190 -33v1501h408q166 0 305 -48t240 -142q102 -92 158.5 -231.5t56.5 -319.5q0 -195 -54.5 -337t-152.5 -236q-100 -94 -240.5 -140.5t-312.5 -46.5h-408zM397 137h215q242 0 384.5 153.5t142.5 430.5q0 131 -40 237.5t-108 182.5q-70 74 -163 115.5t-199 41.5h-232 v-1161z" />
<glyph unicode="E" horiz-adv-x="1138" d="M193 -33v1501h800v-170h-594v-467h547v-174h-547v-520h594v-170h-800z" />
<glyph unicode="F" horiz-adv-x="1024" d="M193 -33v1501h755v-170h-549v-467h525v-174h-525v-690h-206z" />
<glyph unicode="G" horiz-adv-x="1478" d="M119 711q0 172 55 316t156 249q100 102 240.5 160.5t310.5 58.5q141 0 245.5 -24.5t188.5 -67.5l-62 -158q-72 37 -162 58.5t-196 21.5q-129 0 -231.5 -49t-176.5 -133q-72 -84 -110.5 -195.5t-38.5 -236.5q0 -129 41 -240t113 -190q74 -80 172 -125t215 -45q49 0 84.5 2 t62.5 6q25 4 45.5 9t40.5 9v486h-324v172h527v-791q-74 -25 -181.5 -44t-254.5 -19q-172 0 -312.5 53t-240.5 153q-98 98 -152.5 241.5t-54.5 322.5z" />
<glyph unicode="H" horiz-adv-x="1478" d="M190 -33v1501h207v-637h684v637h207v-1501h-207v690h-684v-690h-207z" />
<glyph unicode="I" horiz-adv-x="618" d="M207 -33v1501h205v-1501h-205z" />
<glyph unicode="J" horiz-adv-x="796" d="M53 -35v176q25 -10 53.5 -16t65.5 -6q127 0 180.5 69.5t53.5 229.5v1050h206v-1140q0 -186 -104.5 -286.5t-286.5 -100.5q-43 0 -93 8t-75 16z" />
<glyph unicode="K" horiz-adv-x="1366" d="M190 -33v1501h207v-688l600 688h263l-580 -655l629 -846h-273l-491 695l-148 -164v-531h-207z" />
<glyph unicode="L" horiz-adv-x="1024" d="M193 -33v1501h206v-1331h594v-170h-800z" />
<glyph unicode="M" horiz-adv-x="1851" d="M182 -33v1501h338l412 -1278l403 1278h336v-1501h-205v1329l-436 -1329h-207l-436 1352v-1352h-205z" />
<glyph unicode="N" horiz-adv-x="1507" d="M190 -33v1501h297l627 -1286v1286h203v-1501h-295l-631 1286v-1286h-201z" />
<glyph unicode="O" horiz-adv-x="1593" d="M113 719q0 164 45 305t131 246q88 104 215 164.5t293 60.5q162 0 289.5 -60.5t213.5 -164.5q88 -104 134.5 -246.5t46.5 -304.5q0 -166 -46 -308.5t-132 -246.5q-88 -104 -215 -163.5t-291 -59.5q-166 0 -294 58t-214 163q-88 104 -132 246.5t-44 310.5zM332 719 q0 -113 25.5 -221.5t80.5 -194.5q57 -86 145.5 -139t213.5 -53q123 0 211 53t145 139q55 86 82 194.5t27 221.5t-29 221.5t-86 194.5q-57 84 -144.5 137t-205.5 53q-121 0 -208 -53t-145 -137q-57 -86 -84.5 -195t-27.5 -221z" />
<glyph unicode="P" horiz-adv-x="1245" d="M193 -33v1501h436q109 0 208 -22.5t175 -73.5q76 -49 121 -132t45 -204t-43 -203.5t-113 -136.5q-72 -51 -165 -74.5t-195 -23.5h-263v-631h-206zM399 766h260q55 0 108.5 13.5t94.5 43.5q43 31 68.5 82t25.5 129q0 145 -93 204.5t-224 59.5h-240v-532z" />
<glyph unicode="Q" horiz-adv-x="1593" d="M113 719q0 164 45 305t131 246q88 104 215 164.5t293 60.5q162 0 289.5 -60.5t213.5 -164.5q88 -104 134.5 -246.5t46.5 -304.5q0 -227 -84 -406.5t-244 -273.5l231 -309h-247l-166 231q-39 -12 -83 -16t-91 -4q-166 0 -294 58t-214 163q-88 104 -132 246.5t-44 310.5z M332 719q0 -113 25.5 -221.5t80.5 -194.5q57 -86 145.5 -139t213.5 -53q16 0 32.5 1t30.5 5l-264 368h223l221 -297q117 80 169.5 227.5t52.5 303.5q0 113 -29 221.5t-86 194.5q-57 84 -144.5 137t-205.5 53q-121 0 -208 -53t-145 -137q-57 -86 -84.5 -195t-27.5 -221z" />
<glyph unicode="R" horiz-adv-x="1251" d="M193 -33v1501h352q117 0 220 -16t181 -59t124 -121t46 -201q0 -135 -89 -238.5t-230 -132.5q61 -25 104 -79t68 -109l237 -545h-235l-203 500q-31 76 -80 115t-117 39h-172v-654h-206zM399 793h142q154 0 255 62.5t101 195.5q0 123 -83 185t-228 62h-187v-505z" />
<glyph unicode="S" horiz-adv-x="1138" d="M115 68l61 149q57 -49 137 -76.5t160 -27.5q47 0 102.5 14t102.5 47q47 31 78.5 80t31.5 117q0 63 -28.5 109t-73.5 83q-47 35 -105.5 63.5t-117.5 57.5q-59 27 -115.5 60.5t-101.5 78.5q-43 47 -69.5 108.5t-26.5 145.5q0 100 38.5 179t106.5 130q66 53 154 81t184 28 q88 0 178 -19.5t158 -56.5l-47 -155q-61 31 -129 47t-150 16q-45 0 -93 -12t-89 -41q-41 -27 -66.5 -71t-25.5 -107q0 -57 27.5 -99.5t72.5 -74.5q47 -33 104.5 -60.5t118.5 -56.5q59 -31 116.5 -67t100.5 -85q45 -51 73 -116.5t28 -151.5q0 -117 -42 -201t-116 -139 q-74 -53 -173 -78.5t-214 -25.5q-96 0 -192.5 35.5t-157.5 91.5z" />
<glyph unicode="T" horiz-adv-x="1138" d="M33 1300v168h1073v-168h-434v-1333h-205v1333h-434z" />
<glyph unicode="U" horiz-adv-x="1478" d="M182 549v919h207v-876q0 -109 17.5 -197t58.5 -151q41 -61 108.5 -96t165.5 -35t165 34.5t108 96.5q41 63 59.5 151t18.5 197v876h206v-919q0 -305 -145 -456.5t-412 -151.5q-268 0 -412.5 151.5t-144.5 456.5z" />
<glyph unicode="V" horiz-adv-x="1366" d="M45 1468h229q49 -164 100.5 -328.5t102.5 -330.5t103.5 -332t107.5 -330q51 162 103.5 328t105.5 332q51 166 103.5 331.5t105.5 329.5h213q-66 -193 -128.5 -380t-125.5 -371q-61 -186 -123.5 -372.5t-124.5 -377.5h-272q-127 381 -249 748.5t-251 752.5z" />
<glyph unicode="W" horiz-adv-x="1925" d="M45 1468h223l273 -1339l272 1339h305l279 -1341l270 1341h213l-354 -1501h-281l-280 1358l-289 -1358h-283z" />
<glyph unicode="X" horiz-adv-x="1366" d="M49 -33l520 776l-475 725h254l342 -548l348 548h234l-471 -712l516 -789h-256l-381 606l-387 -606h-244z" />
<glyph unicode="Y" horiz-adv-x="1366" d="M57 1468h244l389 -665l389 665h234l-520 -856v-645h-211v645z" />
<glyph unicode="Z" horiz-adv-x="1138" d="M88 -33v187l709 1144h-682v170h903v-186l-709 -1145h742v-170h-963z" />
<glyph unicode="[" horiz-adv-x="681" d="M184 -303v1872h402v-148h-205v-1577h205v-147h-402z" />
<glyph unicode="\" horiz-adv-x="921" d="M115 1499h190l500 -1661h-189z" />
<glyph unicode="]" horiz-adv-x="681" d="M96 -156h205v1577h-205v148h402v-1872h-402v147z" />
<glyph unicode="^" horiz-adv-x="1024" d="M88 991l340 539h168l340 -539h-217l-205 385l-209 -385h-217z" />
<glyph unicode="_" horiz-adv-x="921" d="M6 -252h909v-145h-909v145z" />
<glyph unicode="`" horiz-adv-x="569" d="M88 1538h240l174 -321h-162z" />
<glyph unicode="a" horiz-adv-x="1138" d="M94 274q0 98 41 168t111 113q68 43 157 63.5t183 20.5q51 0 99 -1t99 -1q0 141 -58 218t-204 77q-86 0 -161.5 -31t-131.5 -80q-16 37 -29.5 83t-21.5 83q72 53 175.5 83t201.5 30q225 0 325.5 -122t100.5 -347v-416q0 -68 6 -143.5t12 -110.5h-188q-2 16 -4 33.5 t-2 34.5q-2 16 -3 31.5t-1 31.5q-49 -66 -136 -112t-198 -46q-174 0 -273.5 83t-99.5 257zM299 281q0 -92 62.5 -138.5t134.5 -46.5q156 0 224 106t68 290h-131q-41 0 -102 -7.5t-119 -27.5q-57 -23 -97 -65t-40 -111z" />
<glyph unicode="b" horiz-adv-x="1251" d="M160 -39v1550h202v-585q57 76 141.5 125t207.5 49q115 0 199.5 -48t140.5 -128q55 -78 82.5 -180.5t27.5 -211.5q0 -111 -25.5 -219t-80.5 -192q-53 -84 -138.5 -136.5t-203.5 -52.5q-127 0 -217 50.5t-144 130.5v-152h-192zM365 516q0 -68 15 -140.5t52 -133.5 q35 -61 91.5 -100.5t138.5 -39.5q78 0 131 41t88 105q33 63 48 136t15 138q0 68 -14.5 140.5t-46.5 132.5q-33 59 -87.5 98t-131.5 39q-78 0 -134.5 -38t-93.5 -99q-37 -59 -54 -133t-17 -146z" />
<glyph unicode="c" horiz-adv-x="909" d="M90 516q0 121 36 227.5t103 184.5q66 78 162 124t217 46q68 0 136.5 -17.5t117.5 -42.5l-49 -151q-37 18 -85 30.5t-99 12.5q-80 0 -139.5 -36t-100.5 -95q-41 -57 -61.5 -132t-20.5 -151t17.5 -149.5t56.5 -133.5q41 -59 103.5 -96t154.5 -37q61 0 113.5 12.5t91.5 32.5 l41 -157q-49 -25 -122 -41.5t-153 -16.5q-127 0 -224 46.5t-163 125.5q-66 80 -99.5 186.5t-33.5 227.5z" />
<glyph unicode="d" horiz-adv-x="1251" d="M90 535q0 109 27.5 211t83.5 180q57 80 142 128t200 48q125 0 204.5 -46t141.5 -122v579h203v-1550h-193v139q-55 -74 -143 -121t-215 -47q-121 0 -207 52.5t-139 136.5q-55 86 -80 193.5t-25 218.5zM307 524q0 -66 14.5 -138.5t47.5 -135.5q35 -63 88 -104.5t133 -41.5 t136 39t91 101q37 61 53.5 134t16.5 140q0 72 -18.5 145.5t-55.5 133.5q-37 61 -93 99t-132 38q-80 0 -134.5 -39t-86.5 -98q-33 -59 -46.5 -132t-13.5 -141z" />
<glyph unicode="e" horiz-adv-x="1138" d="M90 528q0 119 34 223.5t97 182.5q63 76 153.5 121t203.5 45q123 0 213 -48t147 -132q57 -86 85 -204q26 -110 26 -240v-19h-748q0 -80 27.5 -146.5t72.5 -113.5q47 -47 108.5 -73t131.5 -26q86 0 166 27t135 70l62 -156q-68 -49 -165.5 -78t-205.5 -29q-272 0 -407.5 162 t-135.5 434zM299 621h539q-2 123 -69 218t-189 95q-70 0 -120 -28.5t-83 -74.5q-35 -43 -53.5 -99t-24.5 -111z" />
<glyph unicode="f" horiz-adv-x="796" d="M53 879v170h207v114q0 197 73 305.5t271 108.5q43 0 93.5 -7t62.5 -9l-15 -175q-20 10 -43.5 15.5t-60.5 5.5q-117 0 -146.5 -63.5t-29.5 -172.5v-122h274v-170h-274v-916h-205v916h-207z" />
<glyph unicode="g" horiz-adv-x="1251" d="M90 535q0 100 27.5 201.5t85.5 181.5q55 82 142 132t206 50q121 0 208 -45t144 -133v153h189v-1001q0 -236 -122 -364t-411 -128q-86 0 -191.5 19.5t-209.5 58.5l14 188q94 -43 194.5 -71.5t200.5 -28.5q166 0 240 87t80 247l2 86q-63 -86 -154.5 -127t-195.5 -41 q-113 0 -197 43t-141 117q-55 74 -83 171t-28 204zM307 541q0 -72 18.5 -139.5t53.5 -118.5q37 -53 90 -84t123 -31q68 0 123 28.5t94 77.5t59.5 116t20.5 142q0 80 -18.5 153t-55.5 128t-92 88t-129 33q-76 0 -130 -36t-89 -93q-35 -55 -51.5 -126t-16.5 -138z" />
<glyph unicode="h" horiz-adv-x="1251" d="M160 -37v1548h202v-583q61 86 150.5 129t198.5 43q197 0 289 -121t92 -328v-688h-203v600q0 170 -43 269.5t-176 101.5q-84 0 -142.5 -34t-95.5 -93q-37 -57 -53.5 -135t-16.5 -164v-545h-202z" />
<glyph unicode="i" horiz-adv-x="569" d="M174 1292v240h221v-240h-221zM182 -37v1112h203v-1112h-203z" />
<glyph unicode="j" horiz-adv-x="569" d="M0 -408l6 175q10 -2 31.5 -4.5t40.5 1.5q57 6 80.5 63.5t23.5 162.5v1087h205v-1077q0 -80 -7 -155.5t-32 -133.5q-27 -57 -81 -92t-148 -35q-10 0 -29.5 2t-40.5 2q-20 2 -35 3zM174 1294v238h221v-238h-221z" />
<glyph unicode="k" horiz-adv-x="1138" d="M160 -37v1548h202v-919l410 483h268l-417 -454l464 -658h-260l-340 508l-125 -139v-369h-202z" />
<glyph unicode="l" horiz-adv-x="569" d="M182 -37v1548h203v-1548h-203z" />
<glyph unicode="m" horiz-adv-x="1820" d="M154 -39v1112h188v-149q72 98 156 136t186 38q92 0 172 -51.5t123 -159.5q57 115 157.5 163t180.5 48q98 0 164.5 -32t109.5 -87q41 -55 59.5 -130t18.5 -161v-727h-203v680q0 45 -6 96t-26 94t-56.5 72t-97.5 29q-74 0 -125 -36t-84 -91q-33 -57 -46 -128t-13 -140v-576 h-201v680q0 45 -7 96t-26 94q-20 43 -57 72t-98 29q-76 0 -127.5 -36t-81.5 -91q-31 -57 -44.5 -128t-13.5 -140v-576h-202z" />
<glyph unicode="n" horiz-adv-x="1251" d="M160 -39v1112h194v-158q63 92 155.5 137.5t201.5 45.5q197 0 289 -121t92 -328v-688h-203v600q0 170 -43 270.5t-176 100.5q-78 0 -135.5 -34t-96.5 -93q-39 -57 -57.5 -135t-18.5 -164v-545h-202z" />
<glyph unicode="o" horiz-adv-x="1251" d="M88 516q0 125 39 231.5t111 184.5t170 123t217 45t217 -45t170 -123t111.5 -184.5t39.5 -231.5q0 -117 -39 -222.5t-108 -187.5q-72 -80 -171.5 -127t-219.5 -47q-123 0 -222.5 47.5t-169.5 126.5q-72 82 -108.5 187.5t-36.5 222.5zM305 516q0 -78 18.5 -151.5 t57.5 -133.5q41 -57 100.5 -93t143.5 -36q82 0 143 36t100 93q39 59 58.5 133t19.5 152t-21.5 152.5t-62.5 132.5q-41 59 -101.5 95t-135.5 36q-78 0 -137.5 -37t-100.5 -94q-41 -59 -61.5 -134t-20.5 -151z" />
<glyph unicode="p" horiz-adv-x="1251" d="M160 -418v1493h192v-149q51 68 138.5 121t222.5 53q115 0 199.5 -48t140.5 -126q55 -80 81.5 -181.5t26.5 -209.5q0 -111 -25.5 -219.5t-78.5 -192.5q-55 -84 -139 -136.5t-203 -52.5q-123 0 -207 41t-146 121v-514h-202zM365 518q0 -68 15 -140.5t52 -133.5 q35 -61 91.5 -100.5t138.5 -39.5q78 0 131 41t88 105q33 63 48 136t15 138q0 68 -14.5 140.5t-46.5 132.5q-33 59 -87.5 98t-131.5 39q-72 0 -128.5 -37t-93.5 -96q-39 -59 -58 -134t-19 -149z" />
<glyph unicode="q" horiz-adv-x="1251" d="M90 535q0 109 25.5 210t81.5 181q55 78 140 126t202 48q131 0 218 -53.5t142 -120.5v149h193v-1493h-203v512q-63 -82 -155.5 -121t-196.5 -39q-121 0 -205 52.5t-139 136.5q-53 86 -78 193.5t-25 218.5zM307 524q0 -66 14.5 -138.5t47.5 -135.5q35 -63 88 -104.5 t133 -41.5t136 39t91 101q37 61 53.5 134t16.5 140q0 72 -18.5 145.5t-55.5 133.5q-37 61 -93 99t-132 38q-80 0 -134.5 -39t-86.5 -98q-33 -59 -46.5 -132t-13.5 -141z" />
<glyph unicode="r" horiz-adv-x="796" d="M162 -39v1112h184v-182q43 84 121 145.5t170 61.5q37 0 73 -4.5t48 -6.5v-196q-23 10 -54.5 13t-62.5 3q-74 0 -126 -35.5t-85 -95.5q-35 -61 -50 -142t-15 -173v-500h-203z" />
<glyph unicode="s" horiz-adv-x="909" d="M59 33l52 149q49 -39 116.5 -61.5t134.5 -22.5q39 0 82 9.5t78 29.5q37 18 60.5 50t23.5 75q0 37 -22.5 66.5t-57.5 54.5t-81 47.5t-91 44.5q-49 23 -94 50.5t-80 62.5t-55.5 80t-20.5 104q0 86 32 147.5t89 102.5q55 39 129 58.5t158 19.5q78 0 153.5 -18.5t135.5 -49.5 l-56 -151q-45 25 -98 39t-112 14q-92 0 -155 -28.5t-63 -102.5q0 -41 24 -71t62 -52q37 -25 82 -44.5t88 -37.5q47 -25 92.5 -52.5t79.5 -64.5q33 -37 54.5 -86t21.5 -112q0 -90 -34.5 -156t-92.5 -109q-59 -43 -136 -64.5t-163 -21.5q-100 0 -187 26t-149 75z" />
<glyph unicode="t" horiz-adv-x="796" d="M61 899v166h183v235l205 64v-299h276v-166h-276v-602q0 -92 41.5 -143.5t117.5 -51.5q45 0 80 4.5t60 14.5l4 -164q-33 -12 -84.5 -18.5t-100.5 -6.5q-154 0 -238.5 79t-84.5 241v647h-183z" />
<glyph unicode="u" horiz-adv-x="1251" d="M160 383v690h202v-602q0 -170 42 -268.5t178 -100.5h9q76 0 131 31q58 33 95 92q37 57 54.5 135t17.5 166v547h203v-1112h-197v156q-59 -92 -153.5 -137.5t-200.5 -45.5q-199 0 -290 120t-91 329z" />
<glyph unicode="v" horiz-adv-x="1138" d="M45 1073h221l318 -917l311 917h201l-402 -1112h-243z" />
<glyph unicode="w" horiz-adv-x="1779" d="M37 1075h221l250 -934l266 934h248l266 -928l260 928h199l-344 -1112h-240l-270 940l-268 -940h-240z" />
<glyph unicode="x" horiz-adv-x="1138" d="M45 -39l414 580l-369 532h252l236 -371l245 371h226l-367 -516l410 -596h-250l-279 424l-284 -424h-234z" />
<glyph unicode="y" horiz-adv-x="1138" d="M47 1075h223l312 -850l311 850h205l-418 -1059q-31 -78 -63.5 -155.5t-79.5 -139.5q-45 -63 -112 -101t-161 -38q-41 0 -96 10.5t-84 22.5l12 164q33 -18 65 -25.5t75 -7.5q51 0 90 21.5t67 58.5q29 37 48.5 84t31.5 96l-41 109z" />
<glyph unicode="z" horiz-adv-x="1024" d="M86 0v174l580 729h-553v168h802v-168l-575 -737h602v-166h-856z" />
<glyph unicode="{" horiz-adv-x="681" d="M61 588v131q86 0 131.5 55t45.5 170v359q0 63 23.5 112t62.5 82q37 33 82 49.5t86 16.5h147v-138h-92q-76 0 -95.5 -52t-19.5 -124v-338q0 -115 -48 -172t-122 -84q74 -27 122 -84t48 -186v-330q0 -74 19.5 -124t95.5 -50h92v-137h-147q-43 0 -88.5 16.5t-81.5 49.5 q-37 33 -60.5 81t-23.5 113v350q0 121 -45.5 177.5t-131.5 56.5z" />
<glyph unicode="|" horiz-adv-x="614" d="M211 -256v1817h197v-1817h-197z" />
<glyph unicode="}" horiz-adv-x="681" d="M43 -119h92q74 0 94.5 50.5t20.5 123.5v330q0 129 47 186.5t123 83.5q-74 27 -122 84.5t-48 171.5v338q0 72 -20.5 124t-94.5 52h-92v138h147q39 0 84 -16.5t82 -49.5q39 -33 63.5 -82t24.5 -112v-359q0 -115 45.5 -170t131.5 -55v-131q-86 0 -131.5 -56.5t-45.5 -177.5 v-350q0 -66 -24.5 -114t-61.5 -80q-37 -33 -82 -49.5t-86 -16.5h-147v137z" />
<glyph unicode="~" horiz-adv-x="1138" d="M53 659q18 37 43 74t58 68t75.5 50t98.5 19q55 0 120.5 -20.5t126.5 -44.5q31 -14 62 -28.5t61 -26.5q31 -12 60.5 -19.5t58.5 -7.5q68 0 117 45t80 106l73 -124q-14 -33 -38.5 -70t-59.5 -68t-78 -51t-94 -20q-59 0 -123.5 19.5t-126.5 47.5q-31 12 -62.5 26.5 t-62.5 24.5q-31 12 -60.5 20.5t-55.5 8.5q-78 0 -121 -43t-78 -104z" />
<glyph unicode="&#xa1;" d="M801 1331q0 55 36.5 94t86.5 39q49 0 83.5 -37.5t34.5 -95.5q0 -57 -35.5 -93t-84.5 -36t-85 36t-36 93zM811 -266q10 53 15 114.5t8 108.5l30 989h121l31 -989q0 -49 4 -106.5t16 -116.5h-225z" />
<glyph unicode="&#xa4;" d="M162 -61l239 241q-74 86 -114.5 197.5t-40.5 236.5q0 123 42 236t115 201l-241 245l82 82l243 -245q86 74 198 116.5t237 42.5q123 0 234.5 -42t199.5 -115l241 243l82 -82q-4 -4 -38.5 -37.5t-77.5 -76.5q-41 -41 -80 -79t-49 -48q78 -88 120.5 -202t42.5 -239 t-42 -236.5t-115 -197.5l239 -241l-82 -82l-239 239q-88 -76 -199.5 -117.5t-236.5 -41.5t-239 43t-200 118l-239 -241zM365 614q0 -117 43 -218t118 -177q76 -76 177.5 -119t218.5 -43q115 0 216 43t177 119t121 177.5t45 217.5q0 115 -45 216.5t-121 177.5t-177.5 119.5 t-215.5 43.5q-117 0 -218.5 -44t-177.5 -119q-76 -76 -118.5 -177.5t-42.5 -216.5z" />
<glyph unicode="&#xa7;" horiz-adv-x="921" d="M111 647q0 92 60 161t146 69q4 0 8.5 -1.5t10.5 -1.5q4 0 9 -1t11 -1q-111 92 -167 176.5t-56 159.5q0 55 24.5 106.5t67.5 90.5t100.5 61.5t120.5 22.5q68 0 128.5 -22.5t105.5 -59.5q45 -39 71.5 -90t26.5 -109q0 -47 -26.5 -78.5t-67.5 -31.5q-43 0 -69.5 30.5 t-26.5 79.5q0 10 2 20.5t6 20.5t7 20.5t3 22.5q0 41 -48 75t-116 34q-86 0 -133 -42t-47 -110q0 -63 58.5 -134t214.5 -193q78 -63 131 -112.5t84 -90.5q33 -41 46 -80t13 -82q0 -98 -63.5 -166.5t-155.5 -66.5h-15q53 -41 100.5 -79t76.5 -69q33 -37 56 -86t23 -92 q0 -104 -91 -172t-220 -68q-74 0 -140.5 20.5t-117.5 57.5t-80.5 85t-29.5 104q0 45 28.5 75.5t73.5 30.5q39 0 65.5 -29.5t26.5 -70.5q0 -12 -3 -23.5t-5 -23.5q-2 -10 -4 -20.5t-2 -18.5q0 -43 48 -77t118 -34q80 0 134 42t54 97q0 23 -4 39.5t-14 30.5q-16 25 -77 76 t-128 102q-98 74 -175 140.5t-114 115.5q-33 37 -48 81t-15 89zM242 676q0 -49 34.5 -101.5t110.5 -109.5q55 -43 90 -59.5t78 -16.5q51 0 81 31t30 86q0 39 -15.5 72.5t-52.5 76.5q-18 18 -33.5 35t-34.5 29q-16 14 -33.5 27.5t-37.5 29.5q-4 2 -10.5 6t-14.5 9q-6 4 -13 8 t-11 4h-21q-63 0 -105 -37t-42 -90z" />
<glyph unicode="&#xa8;" d="M453 1499q0 57 37.5 94t101.5 37q55 0 92 -38t37 -93q0 -61 -38 -98t-99 -37q-57 0 -94 38t-37 97zM1120 1499q0 57 37 94t100 37q55 0 93.5 -38t38.5 -93q0 -61 -39 -98t-101 -37q-55 0 -92 38t-37 97z" />
<glyph unicode="&#xaa;" d="M389 12h1065v-143h-1065v143zM466 547.5q7 60.5 36 114.5q27 55 75 98t115 65q41 12 83 21.5t85 15.5q41 6 83 12.5t85 16.5q43 8 82 31.5t39 70.5q0 84 -58.5 149.5t-181.5 65.5q-111 0 -182.5 -63.5t-69.5 -192.5h-149q-2 94 28.5 169t86.5 128q55 53 128.5 82 t157.5 29q166 0 277.5 -101.5t111.5 -279.5v-551q0 -49 11.5 -104.5t23.5 -90.5h-147q-12 25 -20.5 53.5t-12.5 61.5q-61 -57 -145 -102t-179 -49q-158 -12 -245.5 59.5t-110.5 173.5q-14 57 -7 117.5zM614 504q2 -84 57.5 -126t166.5 -30q47 4 102 29.5t100 62.5 q47 37 78 82t31 88v166q-43 -23 -90 -34t-94 -17q-47 -8 -94.5 -13t-92.5 -16q-94 -25 -130 -78t-34 -114z" />
<glyph unicode="&#xad;" d="M543 350v148h757v-148h-757z" />
<glyph unicode="&#xae;" d="M100 616q0 168 63.5 317.5t176.5 260.5q111 113 260.5 177.5t319.5 64.5q168 0 317 -64.5t260 -175.5q113 -111 177.5 -260.5t64.5 -319.5t-64.5 -319.5t-177.5 -259.5q-111 -113 -260.5 -176.5t-316.5 -63.5q-170 0 -319.5 63.5t-260.5 176.5q-113 111 -176.5 260 t-63.5 319zM201 616q0 -150 56 -280.5t155 -226.5q96 -98 227 -154.5t281 -56.5q147 0 277 56t228 155q96 96 153.5 227t57.5 280q0 147 -57 278.5t-154 227.5q-98 98 -228 155.5t-277 57.5q-150 0 -281 -57t-227 -154q-98 -98 -154.5 -229t-56.5 -279zM606 137v967h428 q111 0 170.5 -73t59.5 -193q0 -78 -26 -133.5t-77 -86.5q49 -41 65.5 -105t18.5 -189q0 -59 8.5 -98.5t30.5 -88.5h-113q-16 43 -20 77t-4 114q-4 76 -12.5 123t-26.5 71q-18 27 -48 35t-77 8h-268v-428h-109zM715 674h307q66 0 104.5 45t38.5 123q0 72 -37.5 112.5 t-105.5 40.5h-307v-321z" />
<glyph unicode="&#xb0;" horiz-adv-x="921" d="M219 1352q0 96 67.5 163.5t166.5 67.5q94 0 162.5 -67.5t68.5 -163.5q0 -98 -68.5 -165t-162.5 -67q-98 0 -166 66.5t-68 165.5zM324 1352q0 -55 37.5 -94t91.5 -39q49 0 88 38.5t39 94.5q0 53 -39 93t-88 40q-53 0 -91 -40t-38 -93z" />
<glyph unicode="&#xb1;" d="M354 -23v134h1133v-134h-1133zM354 713v143h486v410h164v-410h483v-143h-483v-404h-164v404h-486z" />
<glyph unicode="&#xb2;" horiz-adv-x="921" d="M41 1012q0 66 32.5 125t121.5 116l96 62q33 20 53.5 48t20.5 62q0 45 -26 73t-79 28q-68 0 -90.5 -36t-22.5 -81h-88q0 68 49.5 130.5t153.5 62.5q98 0 146.5 -54.5t48.5 -122.5q0 -72 -42 -110.5t-77 -61.5q-23 -14 -51.5 -31.5t-55.5 -37.5q-29 -20 -52 -45t-32 -49 h314v-78h-420z" />
<glyph unicode="&#xb3;" horiz-adv-x="921" d="M45 1190h90q-2 -43 28 -79t97 -36q55 0 87 34t32 79q0 33 -23.5 55.5t-54.5 30.5q-12 2 -23.5 3t-21.5 3h-23.5h-21.5v76q8 0 20.5 -1t24.5 1q10 0 22.5 2t22.5 6q31 12 45 32.5t14 51.5t-27.5 54.5t-76.5 23.5q-61 0 -87 -32t-22 -69h-88q-4 86 57.5 131.5t141.5 45.5 t137.5 -43t57.5 -111q0 -49 -25 -81t-43 -44q37 -20 61.5 -54t24.5 -85q0 -78 -58.5 -132.5t-152.5 -54.5t-157.5 54.5t-57.5 138.5z" />
<glyph unicode="&#xb4;" d="M696 1309q4 4 50.5 49t101.5 98q55 55 104 102.5t66 57.5q25 18 61.5 26.5t63.5 -24.5q20 -29 17 -54.5t-19 -45.5q-18 -25 -88 -63t-144 -73q-80 -39 -144.5 -60.5t-68.5 -12.5z" />
<glyph unicode="&#xb6;" d="M272 1069q0 186 116 292.5t341 123.5q47 2 76 4t47 4q18 0 32.5 1t35.5 1l129 -4v-1796h-138l-2 952l-145 -2q-221 -4 -356.5 110.5t-135.5 313.5zM420 1073q0 -135 103.5 -216t262.5 -75l123 4v578h-90q-188 0 -293.5 -78t-105.5 -213zM1290 -305v1800h142v-1800h-142z " />
<glyph unicode="&#xb7;" horiz-adv-x="921" d="M324 664q0 63 39.5 103t107.5 40q59 0 99 -41t40 -102q0 -63 -41 -103.5t-106 -40.5q-61 0 -100 41t-39 103z" />
<glyph unicode="&#xb8;" horiz-adv-x="921" d="M256 -365l18 62q31 -8 53.5 -9t41.5 -1q43 0 69.5 24.5t26.5 57.5q0 39 -31 63.5t-102 26.5l112 245h189l-74 -159q39 -31 59.5 -63t20.5 -75t-20.5 -80.5t-55.5 -66.5q-33 -27 -77 -43t-89 -16q-25 0 -56.5 7t-84.5 27z" />
<glyph unicode="&#xb9;" horiz-adv-x="921" d="M113 1440v61q31 0 59.5 5t46.5 22q12 8 23.5 27.5t11.5 43.5h68v-595h-82v436h-127z" />
<glyph unicode="&#xba;" d="M406 14h1064v-143h-1064v143zM487 780q0 115 28 219.5t83 184.5t136 127t188 47q106 0 186 -47t135 -125q53 -80 81 -183.5t28 -218.5t-29 -220t-84 -185q-55 -82 -136 -129t-188 -47q-106 0 -186 46t-133 126q-55 80 -82 184.5t-27 220.5zM637 780q0 -190 80 -309 t205 -119q123 0 204.5 119t81.5 309t-80.5 310t-203.5 120q-61 0 -113.5 -31.5t-91.5 -88.5t-60.5 -136.5t-21.5 -173.5z" />
<glyph unicode="&#xbc;" d="M145 -219l1368 1671l95 -70l-1366 -1673zM238 1276v106q43 0 81.5 9.5t69.5 29.5q23 14 40 43t17 66h101v-854h-125v600h-184zM997 -61l418 589h117v-598h131v-112h-131v-152h-123v152h-412v121zM1130 -72h279v385z" />
<glyph unicode="&#xbd;" d="M131 -219l1370 1671l94 -70l-1368 -1673zM238 1276v104q43 0 82.5 9.5t70.5 29.5q20 14 39 43t19 66h102v-854h-127v602h-186zM1042 -344q0 86 50.5 185.5t160.5 166.5l156 94q43 29 78 73t35 106q0 68 -41 110.5t-121 42.5q-94 0 -133 -55t-37 -125h-129 q0 51 18.5 102.5t55.5 92.5t93 67.5t134 26.5q145 0 217 -80t72 -184t-56.5 -168t-113.5 -101q-12 -6 -37 -21.5t-53 -33.5q-31 -18 -59.5 -37.5t-47.5 -34.5q-35 -29 -58.5 -59.5t-29.5 -61.5h457v-106h-611z" />
<glyph unicode="&#xbe;" d="M170 926l127 -2q-6 -68 41 -121t141 -53q80 0 127 45t49 114q0 49 -33.5 87t-82.5 53q-16 2 -33 3t-33 1h-32.5h-30.5v106q31 0 67.5 2t61.5 15q43 18 66.5 51t23.5 80q0 53 -39 93t-115 40q-90 0 -126 -48.5t-32 -107.5h-124q-6 123 79.5 191.5t206.5 68.5 q123 0 202 -70.5t79 -168.5q0 -82 -40 -129.5t-71 -65.5q57 -27 97 -81t40 -122q0 -117 -85 -191.5t-220 -74.5t-226 81t-85 204zM207 -219l1370 1671l94 -70l-1368 -1673zM991 -66l420 590h117v-598h131v-114h-131v-150h-125v150h-412v122zM1126 -76h277v383z" />
<glyph unicode="&#xbf;" d="M549 117q0 43 15.5 95t43.5 105q29 51 69 99.5t89 87.5q43 33 73.5 69.5t51.5 77.5q18 39 28.5 84t10.5 96v125h155q2 -10 3.5 -32.5t3.5 -49.5q0 -29 1 -54t1 -40q0 -43 -13.5 -86t-38.5 -86t-55.5 -82t-66.5 -69q-39 -33 -74 -71t-62 -81t-42 -88t-15 -90 q0 -55 14.5 -101t44.5 -77q31 -33 75 -50.5t104 -17.5q45 0 89 10.5t83 28.5q39 16 70.5 36.5t56.5 43.5l73 -106q-37 -39 -85 -69t-101 -48q-55 -20 -111.5 -30.5t-111.5 -10.5q-78 0 -146.5 27.5t-119.5 78.5q-53 49 -83 119t-30 156zM852 1339q0 59 37 99.5t88 40.5 q49 0 88 -41t39 -99q0 -59 -40 -95t-89 -36q-45 0 -84 37t-39 94z" />
<glyph unicode="&#xc6;" d="M125 -129l696 1499h744v-156h-559v-477h497v-155h-497v-557h561v-154h-699v504h-360l-240 -504h-143zM571 532h297v642z" />
<glyph unicode="&#xd0;" d="M193 381v141h278v848h447q143 0 259.5 -57.5t198.5 -157.5q80 -100 125 -236.5t45 -295.5q0 -160 -45 -297.5t-125 -237.5q-82 -100 -198.5 -156.5t-259.5 -56.5h-447v506h-278zM618 14h285q115 0 206 48.5t155 130.5q61 84 95 194.5t34 235.5q0 133 -34 244.5t-95 193.5 q-63 80 -154.5 125t-206.5 45h-285v-709h494v-141h-494v-367z" />
<glyph unicode="&#xd7;" d="M381 180l440 428l-426 422l113 109l414 -422l415 413l105 -100l-412 -418l449 -440l-105 -115l-452 449l-428 -432z" />
<glyph unicode="&#xd8;" d="M252 -78l190 228q-61 106 -90.5 225t-29.5 252q0 164 44 301t123 237q80 98 191 154.5t244 56.5q115 0 209 -42t186 -134l188 230l92 -91l-204 -245q57 -98 83.5 -205t26.5 -242q0 -176 -42 -321.5t-117 -247.5q-76 -102 -182.5 -158.5t-235.5 -56.5q-123 0 -216.5 41 t-191.5 143l-178 -213zM463 612q0 -104 17.5 -186t60.5 -158l686 822q-72 80 -138.5 110.5t-160.5 30.5q-215 0 -340 -167t-125 -452zM610 154q70 -78 142.5 -113t158.5 -35q98 0 181.5 44t142.5 124q59 82 92 194.5t33 252.5q0 111 -15.5 193.5t-48.5 158.5z" />
<glyph unicode="&#xde;" d="M494 -137v1519h151v-290h311q88 0 171 -28t147 -85q61 -57 100 -148.5t39 -220.5t-37 -220t-100 -148t-145 -84t-175 -27h-311v-268h-151zM645 279h303q135 0 217 72.5t82 258.5q0 182 -82 260t-217 78h-303v-669z" />
<glyph unicode="&#xdf;" d="M506 -387v1364q0 98 31.5 181t87.5 145q57 61 133 96t166 35q86 0 157.5 -30t124.5 -81t83 -119.5t30 -146.5q0 -43 -8 -91t-33 -92q-23 -45 -67 -84.5t-115 -66.5q94 -25 155.5 -72t96.5 -110q37 -61 50 -135t13 -152q0 -219 -115.5 -336t-330.5 -117q-31 0 -56.5 1 t-58.5 8q-35 4 -80 14t-113 29v-240h-151zM657 6q51 -18 87 -29.5t63 -17.5q29 -6 53.5 -8t52.5 -2q55 0 107.5 10t91.5 35q72 37 110 126t38 183q0 129 -73 221t-194 109q-10 0 -18 1t-17 1q-10 2 -20 2t-23 2v156q131 18 190.5 74.5t59.5 183.5q0 106 -66.5 174.5 t-166.5 68.5q-125 0 -200 -83t-75 -212v-995z" />
<glyph unicode="&#xe6;" d="M242 25q-25 123 29.5 219t152.5 139q76 35 193.5 48t213.5 18v149q0 76 -61 145.5t-170 69.5q-92 0 -152.5 -63.5t-68.5 -149.5h-129q2 76 31.5 138.5t78.5 107.5t112 70.5t132 25.5q90 0 183.5 -48t148.5 -165q51 104 135 157.5t162 53.5q90 0 170 -53t133 -164 q31 -76 46 -176.5t5 -229.5h-600q0 -68 15.5 -137t46.5 -125q31 -57 76.5 -92t107.5 -35q74 0 128 50.5t66 134.5h150q-37 -139 -116 -230.5t-222 -91.5q-70 0 -123 22.5t-96 63.5q-37 31 -64.5 70t-46.5 88q-35 -78 -84 -126t-102 -77q-53 -27 -106.5 -37t-94.5 -10 q-104 -2 -181 55.5t-99 184.5zM387 47q6 -43 29.5 -66.5t54.5 -33.5q31 -12 63.5 -12.5t61.5 4.5q25 2 63.5 16t75.5 43t64.5 75t31.5 113l5 129q-43 0 -88.5 -1t-88.5 -5q-45 -4 -86 -15t-75 -30q-66 -37 -96.5 -87t-14.5 -130zM989 449h455q2 70 -10.5 133t-38.5 112 q-27 47 -68 77t-94 30q-55 0 -98 -30t-74 -77q-33 -49 -51.5 -112.5t-20.5 -132.5z" />
<glyph unicode="&#xf0;" d="M453 307q0 100 32.5 185.5t89.5 146.5q59 61 140.5 95t179.5 34q43 0 112.5 -14.5t120.5 -44.5q-23 57 -42 100t-44 84q-27 43 -56.5 84t-65.5 86l-226 -154l-88 101l221 149q-14 10 -30.5 22.5t-32.5 24.5t-32.5 24.5t-29.5 22.5q-18 10 -31.5 18.5t-25.5 16.5 q-10 8 -20.5 14.5t-22.5 14.5l78 119q74 -41 137.5 -83t136.5 -98l164 123l84 -100l-162 -121q92 -111 149.5 -207t92.5 -186q33 -90 45 -180t12 -189q0 -262 -117.5 -398t-320.5 -136q-102 0 -184 31.5t-142 91.5q-59 57 -90.5 140t-31.5 183zM604 305q0 -135 79 -221 t212 -86q135 0 205.5 94t70.5 244q0 133 -76.5 212t-205.5 79q-135 0 -210 -90.5t-75 -231.5z" />
<glyph unicode="&#xf7;" d="M254 549v137h1337v-137h-1337zM776 61q0 57 41 101.5t103 44.5q63 0 106 -44t43 -102q0 -59 -45 -102t-100 -43q-61 0 -104.5 39t-43.5 106zM776 1167q0 59 41 104.5t103 45.5q63 0 105 -45t42 -105q0 -59 -43 -100t-100 -41q-61 0 -104.5 40t-43.5 101z" />
<glyph unicode="&#xf8;" d="M395 408q0 125 47 243.5t127 198.5q66 66 159 100.5t204 34.5q61 0 124.5 -15.5t127.5 -47.5l129 190l108 -84l-129 -186q86 -104 122 -198.5t36 -215.5q0 -139 -39 -254t-108 -194q-70 -82 -167.5 -126t-213.5 -44q-80 0 -143.5 17t-129.5 67l-135 -195l-98 88l131 195 q-82 102 -117 204.5t-35 221.5zM537 399q0 -74 21.5 -149.5t72.5 -149.5l477 709q-45 27 -89 38t-99 11q-86 0 -157 -35t-122 -94q-49 -61 -76.5 -145t-27.5 -185zM723 2q43 -35 84 -46t102 -11q88 0 164 33.5t131 93.5q53 61 85 144t32 183q0 90 -24.5 164t-86.5 156z" />
<glyph unicode="&#xfe;" d="M508 -223v1620h154v-373q186 39 327 19.5t238 -87.5q90 -66 136 -166t46 -227q0 -162 -63.5 -280.5t-174.5 -186.5q-98 -59 -227 -74.5t-282 17.5v-262h-154zM662 190q123 -25 229 -18.5t188 55.5q72 43 116 127t44 217q0 123 -57.5 195t-143.5 102q-82 27 -180 21 t-196 -37v-662z" />
<glyph unicode="&#x152;" d="M158 633q0 156 40 290t111 234q72 100 170.5 157.5t212.5 57.5q55 0 110.5 -15.5t110.5 -51.5v24h779v-155h-631v-445h553v-151h-553v-517h631v-153h-779v41q-55 -41 -112.5 -58.5t-118.5 -17.5q-117 0 -213 56.5t-166 158.5q-70 100 -107.5 239.5t-37.5 305.5zM305 637 q0 -172 37 -297t107 -201q51 -57 110 -86.5t127 -29.5t126 26.5t101 77.5v1003q-55 47 -110 70t-117 23q-88 0 -161.5 -44t-123.5 -122q-43 -68 -69.5 -187.5t-26.5 -232.5z" />
<glyph unicode="&#x153;" d="M221 365q0 123 27.5 228t79.5 183q49 76 118.5 120t153.5 44q92 0 177 -62.5t147 -222.5q55 150 146 216.5t181 66.5q70 0 137.5 -36t122.5 -111q53 -76 86 -195t33 -285h-606q2 -68 16.5 -135t42.5 -121q29 -55 71 -88t97 -33q63 0 112.5 42t70.5 92h161 q-45 -117 -124.5 -197t-215.5 -80q-43 0 -90 13.5t-92 48.5t-83 93t-64 148q-51 -168 -142.5 -236.5t-183.5 -68.5q-84 0 -153.5 43t-118.5 119q-51 78 -79 183.5t-28 230.5zM369 365q0 -80 13 -159t44 -143q29 -61 72 -100t102 -39q57 0 101 39t73 100q29 63 43 142.5 t14 159.5q0 78 -14 156.5t-43 142.5q-29 61 -73 101t-101 40q-59 0 -102 -40t-72 -101q-31 -63 -44 -142.5t-13 -156.5zM1030 446h443q-4 63 -20.5 126t-43.5 112q-29 49 -69 80t-89 31t-89 -29t-68 -76q-27 -49 -44.5 -111.5t-19.5 -132.5z" />
<glyph unicode="&#x2000;" horiz-adv-x="822" />
<glyph unicode="&#x2001;" horiz-adv-x="1644" />
<glyph unicode="&#x2002;" horiz-adv-x="822" />
<glyph unicode="&#x2003;" horiz-adv-x="1644" />
<glyph unicode="&#x2004;" horiz-adv-x="548" />
<glyph unicode="&#x2005;" horiz-adv-x="411" />
<glyph unicode="&#x2006;" horiz-adv-x="274" />
<glyph unicode="&#x2007;" horiz-adv-x="274" />
<glyph unicode="&#x2008;" horiz-adv-x="205" />
<glyph unicode="&#x2009;" horiz-adv-x="328" />
<glyph unicode="&#x200a;" horiz-adv-x="91" />
<glyph unicode="&#x2010;" horiz-adv-x="921" d="M109 659v170h704v-170h-704z" />
<glyph unicode="&#x2011;" horiz-adv-x="921" d="M109 659v170h704v-170h-704z" />
<glyph unicode="&#x2012;" horiz-adv-x="921" d="M109 659v170h704v-170h-704z" />
<glyph unicode="&#x2013;" horiz-adv-x="1241" d="M109 659v170h1024v-170h-1024z" />
<glyph unicode="&#x2014;" horiz-adv-x="2265" d="M109 659v170h2048v-170h-2048z" />
<glyph unicode="&#x2018;" horiz-adv-x="614" d="M236 1270q0 123 66.5 220t152.5 140l39 -43q-43 -27 -83 -75t-53 -93q-10 -37 -4 -53t29 -16q12 0 32.5 -4.5t35.5 -10.5q23 -12 42 -40.5t19 -67.5q0 -61 -40 -97t-89 -36q-66 0 -106.5 51t-40.5 125z" />
<glyph unicode="&#x2019;" horiz-adv-x="614" d="M102 1456q0 61 39 97t90 36q63 0 105.5 -52t42.5 -124q0 -125 -66.5 -221t-152.5 -139l-39 43q41 25 82 73t53 95q8 35 2 52t-27 17q-14 0 -34.5 3t-32.5 12q-25 12 -43.5 39.5t-18.5 68.5z" />
<glyph unicode="&#x201c;" horiz-adv-x="921" d="M205 1270q0 123 66.5 220t152.5 140l39 -43q-43 -27 -83 -75t-52 -93q-10 -37 -4 -53t28 -16q12 0 33 -4.5t35 -10.5q23 -12 42 -40.5t19 -67.5q0 -61 -40 -97t-89 -36q-66 0 -106.5 51t-40.5 125zM553 1270q0 123 66.5 220t152.5 140l39 -43q-43 -27 -83 -75t-52 -93 q-10 -37 -4 -53t28 -16q12 0 33 -4.5t35 -10.5q23 -12 42 -40.5t19 -67.5q0 -61 -39.5 -97t-89.5 -36q-66 0 -106.5 51t-40.5 125z" />
<glyph unicode="&#x201d;" horiz-adv-x="921" d="M92 1456q0 61 39 97t90 36q63 0 105.5 -52t42.5 -124q0 -125 -66.5 -221t-152.5 -139l-39 43q41 25 81.5 73t53.5 95q8 35 2 52t-27 17q-14 0 -34.5 3t-32.5 12q-25 12 -43.5 39.5t-18.5 68.5zM440 1456q0 61 39 97t90 36q63 0 105.5 -52t42.5 -124q0 -125 -66.5 -221 t-152.5 -139l-39 43q41 25 82 73t53 95q8 35 2 52t-27 17q-14 0 -34.5 3t-32.5 12q-25 12 -43.5 39.5t-18.5 68.5z" />
<glyph unicode="&#x2026;" d="M207 674q0 55 33.5 88t91.5 33q49 0 84 -35t35 -86q0 -55 -36 -88t-91 -33q-49 0 -83 34t-34 87zM801 674q0 55 33.5 88t91.5 33q49 0 82.5 -35t33.5 -86q0 -55 -34.5 -88t-89.5 -33q-51 0 -84 34t-33 87zM1393 674q0 55 34.5 88t92.5 33q49 0 81.5 -35t32.5 -86 q0 -55 -33.5 -88t-89.5 -33q-51 0 -84.5 34t-33.5 87z" />
<glyph unicode="&#x202f;" horiz-adv-x="328" />
<glyph unicode="&#x205f;" horiz-adv-x="411" />
<glyph unicode="&#x20ac;" d="M254 262v162h203q-6 31 -7 64.5t-1 70.5t1 73t7 73h-183l21 161h194q25 88 64 163t90 134q88 104 209 161.5t260 57.5q106 0 204.5 -28.5t141.5 -63.5l-76 -114q-49 31 -109.5 51t-158.5 20q-111 0 -200 -42t-150 -124q-33 -43 -57.5 -97t-40.5 -118h469v-161h-496 q-4 -29 -5 -59t-1 -60q0 -43 1 -84t7 -78h432v-162h-399q14 -53 35.5 -96t50.5 -80q61 -86 154.5 -128t215.5 -42q102 0 168 21.5t117 58.5l74 -109q-57 -43 -166 -73.5t-217 -30.5q-139 0 -259 50t-208 149q-51 55 -89 124.5t-63 155.5h-233z" />
<glyph unicode="&#x2122;" d="M195 1214v95h610v-95h-244v-639h-117v639h-249zM879 575v734h151l201 -537l186 537h170v-734h-110v564l-197 -564h-90l-203 547v-547h-108z" />
<glyph unicode="&#x25fc;" horiz-adv-x="1075" d="M0 0v1075h1075v-1075h-1075z" />
</font>
</defs>
</svg>
